<?xml version="1.0" encoding="iso-8859-1"?>
<!-- Generator: Adobe Illustrator 19.0.0, SVG Export Plug-In . SVG Version: 6.00 Build 0)  -->
<svg xmlns="http://www.w3.org/2000/svg" xmlns:xlink="http://www.w3.org/1999/xlink" version="1.1" id="Capa_1" x="0px" y="0px" viewBox="0 0 512 512" style="enable-background:new 0 0 512 512;" xml:space="preserve" width="512px" height="512px">
<g>
	<g>
		<path d="M332.75,489.995c-1.502-5.315-7.026-8.407-12.342-6.904c-82.274,23.249-170.896,0.18-231.285-60.21    C44.548,378.307,20,319.042,20,256.004c0-5.523-4.477-10-10-10s-10,4.477-10,10c0,68.381,26.629,132.668,74.98,181.02    c48.645,48.645,114.176,74.967,181.232,74.967c23.241,0,46.667-3.162,69.635-9.653C331.161,500.836,334.252,495.31,332.75,489.995    z" fill="#FFFFFF"/>
	</g>
</g>
<g>
	<g>
		<path d="M368.235,474.87c-2.44-4.88-8.331-6.893-13.234-4.561c-4.947,2.308-7.135,8.171-4.888,13.164    c1.667,3.704,5.31,5.899,9.125,5.899c1.372,0,2.766-0.284,4.098-0.884c0.124-0.056,0.305-0.142,0.427-0.202    C368.703,485.816,370.705,479.809,368.235,474.87z" fill="#FFFFFF"/>
	</g>
</g>
<g>
	<g>
		<path d="M437.02,74.984C404.551,42.516,364.003,19.363,319.758,8.03C276.811-2.971,231.5-2.649,188.725,8.959    c-5.331,1.446-8.479,6.94-7.032,12.27c1.446,5.329,6.94,8.482,12.269,7.031c81.532-22.125,169.247,1.198,228.915,60.867    C467.452,133.701,492,192.966,492,256.004c0,5.522,4.477,10,10,10s10-4.478,10-10C512,187.624,485.371,123.337,437.02,74.984z" fill="#FFFFFF"/>
	</g>
</g>
<g>
	<g>
		<path d="M161.745,28.508c-2.303-5.005-8.231-7.199-13.245-4.913c-0.021,0.009-0.062,0.028-0.082,0.038    c-5.009,2.326-7.164,8.263-4.838,13.272c1.692,3.643,5.311,5.783,9.087,5.783c1.414,0,2.851-0.3,4.215-0.934    C161.88,39.434,164.049,33.513,161.745,28.508z" fill="#FFFFFF"/>
	</g>
</g>
<g>
	<g>
		<path d="M434,278.806V146.497c0-5.523-4.477-10-10-10H282.283c-10.335,0-19.668,4.351-26.283,11.309    c-6.615-6.958-15.947-11.309-26.283-11.309h-49.924c0.151-2.128,0.233-4.275,0.233-6.441c0-49.626-40.374-90-90-90    s-90,40.374-90,90c0,45.549,34.014,83.298,77.974,89.194v107.247v39.014c0,5.522,4.477,10,10,10h244.316    c3.827,46.126,42.587,82.493,89.684,82.493c49.626,0,90-40.374,90-90C512,322.446,477.973,284.691,434,278.806z M229.717,156.497    L229.717,156.497c8.979,0,16.283,7.304,16.283,16.283v147.58c-4.899-2.471-10.431-3.863-16.283-3.863H98v-96.799    c36.909-3.256,67.491-28.882,78.06-63.201H229.717z M28.09,162.62c-5.139-9.735-8.063-20.812-8.063-32.564    c-0.001-38.598,31.401-70,69.999-70s70,31.402,70,70c0,11.752-2.925,22.829-8.063,32.564    c-5.009-8.277-13.383-14.375-23.447-16.252l-2.459-0.459c0.715-2.872,1.1-5.872,1.1-8.962v-17.654    c0-20.473-16.656-37.129-37.13-37.129s-37.13,16.656-37.13,37.129v17.654c0,3.09,0.385,6.09,1.1,8.962l-2.459,0.459    C41.474,148.245,33.099,154.343,28.09,162.62z M107.156,119.293v17.654c0,9.445-7.685,17.13-17.13,17.13s-17.13-7.685-17.13-17.13    v-17.654c0-9.445,7.685-17.129,17.13-17.129S107.156,109.848,107.156,119.293z M43.053,181.91v-1.255    c0-7.162,5.11-13.313,12.15-14.626l9.667-1.803c6.62,6.11,15.458,9.851,25.156,9.851s18.535-3.741,25.156-9.851l9.667,1.803    c7.04,1.313,12.15,7.464,12.15,14.626v1.255c-12.429,11.27-28.913,18.146-46.973,18.146S55.483,193.18,43.053,181.91z M98,355.51    v-19.013h131.717c8.979,0,16.283,7.305,16.283,16.283c0,0.948,0.141,1.862,0.387,2.73H98z M332.871,355.511h-67.258    c0.246-0.869,0.387-1.783,0.387-2.73c0-8.979,7.304-16.283,16.283-16.283h55.414C335.425,342.555,333.791,348.919,332.871,355.511    z M346.672,316.496h-64.389c-5.852,0-11.383,1.393-16.283,3.863V172.78c0-8.979,7.304-16.283,16.283-16.283H414v121.866    c-27.225,2.41-51.003,16.991-65.845,38.255C347.67,316.546,347.177,316.496,346.672,316.496z M468.973,419.857    c-12.429,11.27-28.913,18.146-46.973,18.146s-34.543-6.875-46.973-18.146v-1.255c0-7.162,5.11-13.313,12.151-14.626l9.666-1.803    c6.62,6.11,15.458,9.851,25.156,9.851s18.535-3.741,25.156-9.851l9.667,1.803c7.04,1.313,12.15,7.464,12.15,14.626V419.857z     M404.87,374.895v-17.653c0-9.445,7.685-17.13,17.13-17.13s17.13,7.685,17.13,17.13v17.653c0,9.445-7.685,17.13-17.13,17.13    S404.87,384.34,404.87,374.895z M483.937,400.568c-5.009-8.277-13.383-14.375-23.447-16.251l-2.46-0.459    c0.715-2.872,1.1-5.873,1.1-8.963v-17.653c0-20.474-16.656-37.13-37.13-37.13s-37.13,16.656-37.13,37.13v17.653    c0,3.09,0.386,6.091,1.1,8.963l-2.459,0.459c-10.064,1.876-18.439,7.974-23.448,16.251c-5.139-9.735-8.064-20.812-8.064-32.564    c0-38.598,31.402-70,70-70c38.598,0,70,31.402,70,70C492,379.756,489.075,390.833,483.937,400.568z" fill="#FFFFFF"/>
	</g>
</g>
<g>
	<g>
		<path d="M365.162,182.497h-50.325c-5.523,0-10,4.477-10,10c0,5.523,4.477,10,10,10h50.325c5.523,0,10-4.477,10-10    C375.162,186.974,370.685,182.497,365.162,182.497z" fill="#FFFFFF"/>
	</g>
</g>
<g>
	<g>
		<path d="M365.162,226.497h-50.325c-5.523,0-10,4.477-10,10c0,5.523,4.477,10,10,10h50.325c5.523,0,10-4.477,10-10    C375.162,230.974,370.685,226.497,365.162,226.497z" fill="#FFFFFF"/>
	</g>
</g>
<g>
	<g>
		<path d="M365.162,270.497h-50.325c-5.523,0-10,4.478-10,10c0,5.522,4.477,10,10,10h50.325c5.523,0,10-4.478,10-10    C375.162,274.975,370.685,270.497,365.162,270.497z" fill="#FFFFFF"/>
	</g>
</g>
<g>
	<g>
		<path d="M197.163,182.497H184c-5.523,0-10,4.477-10,10c0,5.523,4.477,10,10,10h13.163c5.523,0,10-4.477,10-10    C207.163,186.974,202.686,182.497,197.163,182.497z" fill="#FFFFFF"/>
	</g>
</g>
<g>
	<g>
		<path d="M197.163,226.497h-50.325c-5.523,0-10,4.477-10,10c0,5.523,4.477,10,10,10h50.325c5.523,0,10-4.477,10-10    C207.163,230.974,202.686,226.497,197.163,226.497z" fill="#FFFFFF"/>
	</g>
</g>
<g>
	<g>
		<path d="M197.163,270.497h-50.325c-5.523,0-10,4.478-10,10c0,5.522,4.477,10,10,10h50.325c5.523,0,10-4.478,10-10    C207.163,274.975,202.686,270.497,197.163,270.497z" fill="#FFFFFF"/>
	</g>
</g>
<g>
	<g>
		<path d="M256.127,50.65c-5.523,0-10,4.478-10,10v31.513c0,5.523,4.477,10,10,10s10-4.477,10-10V60.65    C266.127,55.127,261.65,50.65,256.127,50.65z" fill="#FFFFFF"/>
	</g>
</g>
<g>
	<g>
		<path d="M321.238,81.974c-3.905-3.906-10.237-3.906-14.142,0l-19.41,19.41c-3.905,3.905-3.905,10.237,0,14.143    c1.953,1.953,4.512,2.929,7.071,2.929s5.119-0.976,7.071-2.929l19.41-19.41C325.143,92.212,325.143,85.88,321.238,81.974z" fill="#FFFFFF"/>
	</g>
</g>
<g>
	<g>
		<path d="M226.039,100.916l-20.881-20.881c-3.905-3.905-10.237-3.905-14.142,0c-3.905,3.905-3.905,10.237,0,14.143l20.881,20.881    c1.953,1.953,4.512,2.929,7.071,2.929s5.119-0.976,7.071-2.929C229.944,111.154,229.944,104.822,226.039,100.916z" fill="#FFFFFF"/>
	</g>
</g>
<g>
</g>
<g>
</g>
<g>
</g>
<g>
</g>
<g>
</g>
<g>
</g>
<g>
</g>
<g>
</g>
<g>
</g>
<g>
</g>
<g>
</g>
<g>
</g>
<g>
</g>
<g>
</g>
<g>
</g>
</svg>
