<?xml version="1.0"?>
<svg xmlns="http://www.w3.org/2000/svg" viewBox="0 -24 512 511" width="512px" height="512px"><path d="m457.597656.5h-403.195312c-29.996094 0-54.402344 24.40625-54.402344 54.402344v239.761718c0 30 24.40625 54.402344 54.402344 54.402344h56.363281v98.355469c0 6.210937 3.753906 11.808594 9.503906 14.160156 1.875.765625 3.839844 1.140625 5.789063 1.140625 4.027344 0 7.980468-1.589844 10.914062-4.578125l107.207032-109.078125h213.417968c29.996094 0 54.402344-24.402344 54.402344-54.402344v-239.761718c0-29.996094-24.40625-54.402344-54.402344-54.402344zm-194.28125 259.417969c-2.277344 1.242187-4.796875 1.863281-7.316406 1.863281s-5.035156-.621094-7.316406-1.863281c-3.699219-2.015625-90.550782-50.082031-90.550782-116.339844 0-32.601563 26.523438-59.128906 59.128907-59.128906 14.503906 0 28.167969 5.265625 38.738281 14.441406 10.570312-9.175781 24.238281-14.441406 38.738281-14.441406 32.605469 0 59.128907 26.527343 59.128907 59.128906 0 66.257813-86.851563 114.324219-90.550782 116.339844zm0 0" fill="#FFFFFF"/><path d="m294.738281 115.046875c-10.585937 0-20.25 5.824219-25.222656 15.195313-2.652344 5.003906-7.851563 8.132812-13.515625 8.132812s-10.863281-3.128906-13.515625-8.132812c-4.972656-9.371094-14.636719-15.195313-25.222656-15.195313-15.734375 0-28.53125 12.800781-28.53125 28.53125 0 35.960937 43.363281 70.335937 67.253906 85.175781 23.890625-14.894531 67.285156-49.351562 67.285156-85.175781 0-15.734375-12.796875-28.53125-28.53125-28.53125zm0 0" fill="#FFFFFF"/></svg>
